<?xml version="1.0" encoding="UTF-8" standalone="no"?>
<!-- Generator: Adobe Illustrator 16.0.0, SVG Export Plug-In . SVG Version: 6.00 Build 0)  -->

<svg
   xmlns:dc="http://purl.org/dc/elements/1.1/"
   xmlns:cc="http://creativecommons.org/ns#"
   xmlns:rdf="http://www.w3.org/1999/02/22-rdf-syntax-ns#"
   xmlns:svg="http://www.w3.org/2000/svg"
   xmlns="http://www.w3.org/2000/svg"
   xmlns:sodipodi="http://sodipodi.sourceforge.net/DTD/sodipodi-0.dtd"
   xmlns:inkscape="http://www.inkscape.org/namespaces/inkscape"
   version="1.1"
   id="Capa_1"
   x="0px"
   y="0px"
   width="1000.008"
   height="612.00702"
   viewBox="0 0 1000.008 612.007"
   xml:space="preserve"
   inkscape:version="0.91 r13725"
   sodipodi:docname="airplane.svg"><metadata
     id="metadata4254"><rdf:RDF><cc:Work
         rdf:about=""><dc:format>image/svg+xml</dc:format><dc:type
           rdf:resource="http://purl.org/dc/dcmitype/StillImage" /><dc:title></dc:title></cc:Work></rdf:RDF></metadata><defs
     id="defs4252" /><sodipodi:namedview
     pagecolor="#ffffff"
     bordercolor="#666666"
     borderopacity="1"
     objecttolerance="10"
     gridtolerance="10"
     guidetolerance="10"
     inkscape:pageopacity="0"
     inkscape:pageshadow="2"
     inkscape:window-width="1440"
     inkscape:window-height="792"
     id="namedview4250"
     showgrid="false"
     inkscape:zoom="0.96404123"
     inkscape:cx="513.464"
     inkscape:cy="344.03615"
     inkscape:window-x="0"
     inkscape:window-y="0"
     inkscape:window-maximized="1"
     inkscape:current-layer="Capa_1" /><g
     id="g4216"
     transform="matrix(0.83050884,0,0,1,456.41195,-4.1491992)"><path
       d="m 612.008,89.517 c -0.071,-2.462 -0.762,-4.587 -1.931,-6.749 -0.354,-0.691 -0.071,-1.541 -0.585,-2.196 -0.248,-0.266 -0.584,-0.23 -0.832,-0.443 -0.283,-0.354 -0.283,-0.797 -0.514,-1.081 -2.285,-2.25 -5.084,-3.614 -8.06,-4.145 -0.319,-0.036 -0.479,0.124 -0.762,0.071 -2.692,-0.336 -5.509,-0.177 -8.024,0.939 L 9.024,331.306 c -5.916,2.604 -9.547,8.732 -8.963,15.198 0.514,6.465 5.154,11.868 11.514,13.409 l 131.717,31.919 64.034,136.624 c 0.443,0.886 1.275,1.329 1.877,2.091 0.284,0.478 0.106,1.08 0.514,1.505 0.584,0.744 1.523,1.099 2.285,1.665 0.584,0.496 1.098,0.992 1.877,1.364 2.285,1.258 4.641,2.108 7.192,2.108 0.584,0 1.098,-0.036 1.701,-0.106 2.869,-0.319 5.296,-1.683 7.439,-3.348 0.248,-0.213 0.655,-0.106 0.939,-0.337 l 100.913,-89.028 99.851,32.753 c 7.439,2.32 15.57,-1.223 18.688,-8.396 L 611.37,95.787 c 0.319,-0.903 0.071,-1.895 0.248,-2.852 0.32,-1.204 0.39,-2.178 0.39,-3.418 z M 237.581,389.335 c -0.283,0.194 -0.177,0.566 -0.443,0.779 -2.001,2.055 -3.702,4.429 -4.322,7.333 L 215.829,475.086 173.352,384.322 435.493,213.457 237.581,389.335 Z M 434.873,177.624 151.193,362.5 62.342,340.996 434.873,177.624 Z m -189.09,302.44 13.037,-59.73 39.82,13.056 -52.857,46.674 z M 428.266,444 277.419,394.49 556.529,146.43 428.266,444 Z"
       id="path4218"
       style="fill:#ee82ee;fill-opacity:1"
       inkscape:connector-curvature="0" /></g><g
     id="g4220"
     style="fill:#ee82ee;fill-opacity:1" /><g
     id="g4222"
     style="fill:#ee82ee;fill-opacity:1" /><g
     id="g4224"
     style="fill:#ee82ee;fill-opacity:1" /><g
     id="g4226"
     style="fill:#ee82ee;fill-opacity:1" /><g
     id="g4228"
     style="fill:#ee82ee;fill-opacity:1" /><g
     id="g4230"
     style="fill:#ee82ee;fill-opacity:1" /><g
     id="g4232"
     style="fill:#ee82ee;fill-opacity:1" /><g
     id="g4234"
     style="fill:#ee82ee;fill-opacity:1" /><g
     id="g4236"
     style="fill:#ee82ee;fill-opacity:1" /><g
     id="g4238"
     style="fill:#ee82ee;fill-opacity:1" /><g
     id="g4240"
     style="fill:#ee82ee;fill-opacity:1" /><g
     id="g4242"
     style="fill:#ee82ee;fill-opacity:1" /><g
     id="g4244"
     style="fill:#ee82ee;fill-opacity:1" /><g
     id="g4246"
     style="fill:#ee82ee;fill-opacity:1" /><g
     id="g4248"
     style="fill:#ee82ee;fill-opacity:1" /></svg>