<?xml version="1.0" encoding="UTF-8" standalone="no"?>
<svg
   xmlns:dc="http://purl.org/dc/elements/1.1/"
   xmlns:cc="http://creativecommons.org/ns#"
   xmlns:rdf="http://www.w3.org/1999/02/22-rdf-syntax-ns#"
   xmlns:svg="http://www.w3.org/2000/svg"
   xmlns="http://www.w3.org/2000/svg"
   version="1.1"
   id="svg2"
   viewBox="0 0 1024 1024"
   height="1024"
   width="1024">
  <defs
     id="defs4" />
  <metadata
     id="metadata7">
    <rdf:RDF>
      <cc:Work
         rdf:about="">
        <dc:format>image/svg+xml</dc:format>
        <dc:type
           rdf:resource="http://purl.org/dc/dcmitype/StillImage" />
        <dc:title></dc:title>
      </cc:Work>
    </rdf:RDF>
  </metadata>
  <text
     transform="scale(0.94676501,1.0562283)"
     id="text4158"
     y="774.72424"
     x="78.914207"
     style="font-style:normal;font-weight:normal;font-size:817.8614502px;line-height:125%;font-family:sans-serif;letter-spacing:0px;word-spacing:0px;fill:#000000;fill-opacity:1;stroke:none;stroke-width:1px;stroke-linecap:butt;stroke-linejoin:miter;stroke-opacity:1"
     xml:space="preserve"><tspan
       y="774.72424"
       x="78.914207"
       id="tspan4160" /></text>
  <flowRoot
     transform="matrix(9.8927486,0,0,11.688034,-544.8198,-2603.6274)"
     style="font-style:normal;font-variant:normal;font-weight:normal;font-stretch:normal;font-size:80px;line-height:125%;font-family:Times;-inkscape-font-specification:'Times, Normal';text-align:start;letter-spacing:0px;word-spacing:0px;writing-mode:lr-tb;text-anchor:start;fill:#ffffff;fill-opacity:1;stroke:none;stroke-width:1px;stroke-linecap:butt;stroke-linejoin:miter;stroke-opacity:1;"
     id="flowRoot4162"
     xml:space="preserve"><flowRegion
       id="flowRegion4164"><rect
         style="font-style:normal;font-variant:normal;font-weight:normal;font-stretch:normal;font-size:80px;line-height:125%;font-family:Times;-inkscape-font-specification:'Times, Normal';text-align:start;writing-mode:lr-tb;text-anchor:start;fill:#ffffff;fill-opacity:1;"
         y="218.07649"
         x="82.85714"
         height="688.57141"
         width="600"
         id="rect4166" /></flowRegion><flowPara
       id="flowPara4168">R</flowPara></flowRoot>  <path
     id="path4228"
     d="m 286.09371,813.51094 c 0,-7.64234 0.93898,-8.32788 13.73057,-10.02477 21.18173,-2.80986 38.14609,-12.66806 44.84086,-26.0576 5.58442,-11.16883 5.71429,-17.14286 5.71429,-262.85714 0,-138.28572 -0.96391,-254.8652 -2.14202,-259.06551 -5.19561,-18.52385 -20.3055,-28.31343 -54.28655,-35.17184 -6.10326,-1.23182 -7.85715,-3.21252 -7.85715,-8.87321 l 0,-7.2874 135,1.13228 c 127.0205,1.06535 136.39162,1.49637 158.54383,7.29201 48.40697,12.66464 87.62095,40.48042 104.76557,74.3137 22.93783,45.26563 23.05529,112.67964 0.27458,157.63502 -16.57543,32.71005 -57.66023,61.12355 -105.90563,73.24241 -11.16257,2.80394 -18.19879,5.98342 -17.44661,7.88368 2.91117,7.3544 169.00584,246.84329 177.11115,255.37334 10.70351,11.2644 34.34486,23.52552 45.36086,23.52552 7.00703,0 8.01045,1.08054 8.01045,8.62608 l 0,8.62609 -63.17488,-0.76894 -63.17489,-0.76895 -93.68625,-142.85714 -93.68628,-142.85714 -10.99599,-0.93046 c -6.0478,-0.51174 -16.51479,-0.10343 -23.25998,0.90752 l -12.26398,1.83797 0.83541,114.80677 c 0.78705,108.16034 1.16623,115.4684 6.5497,126.23534 7.05171,14.10343 23.90248,23.31212 47.55498,25.98809 16.07819,1.81903 16.73082,2.21283 16.73082,10.09525 l 0,8.20238 -108.57143,0 -108.57143,0 0,-8.20335 z M 516.22874,493.48303 c 70.1394,-14.57399 101.35235,-54.27541 101.25963,-128.7976 -0.10866,-87.34068 -45.79186,-127.97262 -140.91904,-125.33742 -31.56012,0.87427 -34.21914,1.39401 -39.3057,7.6828 -5.1826,6.40754 -5.45563,12.97085 -5.45563,131.14848 l 0,124.40337 29.28571,-1.86426 c 16.10715,-1.02534 40.91791,-4.28126 55.13503,-7.23537 z"
     style="fill:#000000;fill-opacity:1" />
</svg>
