<?xml version="1.0" encoding="UTF-8" standalone="no"?>
<svg
   xmlns:dc="http://purl.org/dc/elements/1.1/"
   xmlns:cc="http://creativecommons.org/ns#"
   xmlns:rdf="http://www.w3.org/1999/02/22-rdf-syntax-ns#"
   xmlns:svg="http://www.w3.org/2000/svg"
   xmlns="http://www.w3.org/2000/svg"
   xmlns:sodipodi="http://sodipodi.sourceforge.net/DTD/sodipodi-0.dtd"
   xmlns:inkscape="http://www.inkscape.org/namespaces/inkscape"
   enable-background="new"
   id="svg3812"
   preserveAspectRatio="xMidYMid meet"
   viewBox="0 0 800.000000 268.000000"
   height="268.000000pt"
   width="800.000000pt"
   version="1.0"
   inkscape:version="0.91 r13725"
   sodipodi:docname="ministry-logo.svg">
  <sodipodi:namedview
     pagecolor="#000000"
     bordercolor="#666666"
     borderopacity="1"
     objecttolerance="10"
     gridtolerance="10"
     guidetolerance="10"
     inkscape:pageopacity="0"
     inkscape:pageshadow="2"
     inkscape:window-width="1440"
     inkscape:window-height="792"
     id="namedview8225"
     showgrid="false"
     inkscape:zoom="0.87681241"
     inkscape:cx="240.99544"
     inkscape:cy="150.86743"
     inkscape:window-x="0"
     inkscape:window-y="0"
     inkscape:window-maximized="1"
     inkscape:current-layer="layer2" />
  <defs
     id="defs3854" />
  <metadata
     id="metadata3814">
Created by potrace 1.15, written by Peter Selinger 2001-2017
<rdf:RDF>
  <cc:Work
     rdf:about="">
    <dc:format>image/svg+xml</dc:format>
    <dc:type
       rdf:resource="http://purl.org/dc/dcmitype/StillImage" />
    <dc:title></dc:title>
  </cc:Work>
</rdf:RDF>
</metadata>
  <g
     style="opacity:1"
     id="layer2"
     transform="translate(72.991668,0)">
    <path
       transform="scale(0.8,0.8)"
       id="path3952"
       d="m 150.65568,120.05967 c -0.37329,-1.48729 0.10717,-6.98611 1.0677,-12.21958 2.16987,-11.822663 2.22922,-31.209029 0.12289,-40.141722 -2.23138,-9.463036 -7.17309,-19.378631 -15.29518,-30.689929 -3.83999,-5.347801 -6.98181,-10.175978 -6.98181,-10.729283 0,-0.553305 0.75345,-1.631313 1.67433,-2.395573 1.42283,-1.180849 2.52501,-0.50745 7.33794,4.483291 3.11499,3.23007 12.25941,13.893866 20.32093,23.697323 12.38454,15.060585 15.66787,18.384974 21.17443,21.439213 l 6.51712,3.614745 28.78391,0.11256 c 51.79498,0.202543 64.03967,1.510315 59.22462,6.32537 -1.37703,1.37702 -5.67903,1.852435 -22.04978,2.436726 -22.89566,0.817171 -29.98892,1.859985 -44.77814,6.583046 -13.83652,4.418812 -23.37541,9.337223 -36.38721,18.761883 -10.76964,7.80062 -16.77725,11.42611 -18.93362,11.42611 -0.61568,0 -1.42484,-1.21688 -1.79813,-2.70418 z"
       style="fill:#a0a0a0;stroke:none;stroke-width:1px;stroke-linecap:butt;stroke-linejoin:miter;stroke-opacity:1"
       inkscape:connector-curvature="0" />
    <path
       id="path3818"
       d="m 405,2638 c -13,-39 -35,-144 -46,-223 -16,-113 -14,-232 5,-323 14,-68 49,-152 64,-152 4,0 5,58 3,130 -3,134 7,236 34,358 l 16,71 52,-15 c 110,-32 273,-120 326,-178 54,-57 55,-15 4,73 -64,108 -211,208 -375,255 -68,19 -77,20 -83,4 z"
       style="fill:#9eb184;fill-opacity:1;stroke:none"
       transform="matrix(0.1,0,0,-0.1,14.772127,268)"
       inkscape:connector-curvature="0" />
    <path
       id="path3820"
       d="m 890,2480 c -9,-16 -2,-29 39,-81 66,-82 116,-178 135,-262 20,-84 20,-221 1,-307 -17,-76 -18,-110 -5,-130 13,-20 52,0 163,84 100,75 158,107 260,142 147,50 231,62 434,63 98,1 125,4 138,17 20,21 6,39 -38,49 -17,5 -174,9 -348,9 l -315,2 -56,27 c -48,24 -71,46 -169,170 -116,146 -200,237 -218,237 -6,0 -15,-9 -21,-20 z"
       style="fill:#9eb184;fill-opacity:1;stroke:none"
       transform="matrix(0.1,0,0,-0.1,14.772127,268)"
       inkscape:connector-curvature="0" />
    <path
       id="path3822"
       d="m 1398,2329 c -43,-22 -65,-50 -79,-102 -11,-41 3,-107 23,-107 13,0 66,36 105,73 79,74 40,182 -49,136 z"
       style="fill:#9eb184;fill-opacity:1;stroke:none"
       transform="matrix(0.1,0,0,-0.1,14.772127,268)"
       inkscape:connector-curvature="0" />
    <path
       id="path3824"
       d="m 274,2035 c -11,-27 5,-129 46,-300 44,-185 52,-282 27,-350 -8,-22 -58,-130 -112,-240 C 96,858 66,780 89,766 c 14,-9 36,24 80,118 93,202 257,396 400,476 126,71 156,93 159,123 3,26 -3,30 -94,73 -184,85 -265,205 -319,467 -6,29 -32,37 -41,12 z"
       style="fill:#9eb184;fill-opacity:1;stroke:none"
       transform="matrix(0.1,0,0,-0.1,14.772127,268)"
       inkscape:connector-curvature="0" />
    <path
       id="path3826"
       d="m 1950,1917 c -3,-3 -32,-7 -65,-10 -142,-13 -140,-40 5,-54 114,-11 361,-99 520,-185 35,-20 66,-40 67,-45 4,-11 -187,-141 -297,-202 -115,-64 -251,-125 -354,-157 -101,-31 -98,-44 9,-44 159,0 348,54 565,161 126,63 390,228 418,262 11,13 3,21 -60,55 -154,84 -392,173 -528,196 -19,3 -44,8 -56,10 -38,8 -219,18 -224,13 z"
       style="fill:#9eb184;fill-opacity:1;stroke:none"
       transform="matrix(0.1,0,0,-0.1,14.772127,268)"
       inkscape:connector-curvature="0" />
    <path
       id="path3828"
       d="m 213,1502 c -12,-2 -33,-15 -48,-29 -35,-36 -32,-91 6,-112 25,-14 31,-13 75,10 27,14 55,37 64,51 13,24 13,29 -4,47 -21,23 -62,38 -93,33 z"
       style="fill:#9eb184;fill-opacity:1;stroke:none"
       transform="matrix(0.1,0,0,-0.1,14.772127,268)"
       inkscape:connector-curvature="0" />
    <path
       id="path3830"
       d="m 1024,1312 c -24,-15 -31,-51 -33,-157 C 986,899 903,702 698,451 630,369 619,338 652,332 c 23,-4 83,60 282,303 95,116 191,227 214,247 74,67 136,86 432,133 58,9 137,23 175,30 39,8 82,16 96,19 67,11 150,40 165,57 14,15 14,21 4,34 -16,19 -33,19 -107,0 -82,-21 -159,-28 -303,-29 -218,-2 -298,22 -470,139 -81,55 -95,61 -116,47 z"
       style="fill:#9eb184;fill-opacity:1;stroke:none"
       transform="matrix(0.1,0,0,-0.1,14.772127,268)"
       inkscape:connector-curvature="0" />
    <path
       id="path3848"
       d="M 232,878 C 152,761 55,497 36,345 34,329 28,281 22,240 16,199 8,132 5,93 0,30 1,20 15,20 c 26,0 205,94 300,158 163,110 283,235 360,375 29,52 33,67 21,67 -9,0 -16,-4 -16,-9 C 680,595 523,464 427,399 347,345 172,250 152,250 c -8,0 2,161 14,220 4,19 7,38 6,43 -7,27 66,301 103,390 14,33 -14,17 -43,-25 z"
       style="fill:#9eb184;fill-opacity:1;stroke:none"
       transform="matrix(0.1,0,0,-0.1,14.772127,268)"
       inkscape:connector-curvature="0" />
    <path
       id="path3850"
       d="m 1233,882 c -33,-21 -43,-119 -18,-178 17,-42 70,-69 109,-55 53,21 73,99 41,161 -22,43 -106,89 -132,72 z"
       style="fill:#9eb184;fill-opacity:1;stroke:none"
       transform="matrix(0.1,0,0,-0.1,14.772127,268)"
       inkscape:connector-curvature="0" />
  </g>
</svg>
