<?xml version="1.0" encoding="UTF-8" standalone="no"?>
<svg
   xmlns:dc="http://purl.org/dc/elements/1.1/"
   xmlns:cc="http://creativecommons.org/ns#"
   xmlns:rdf="http://www.w3.org/1999/02/22-rdf-syntax-ns#"
   xmlns:svg="http://www.w3.org/2000/svg"
   xmlns="http://www.w3.org/2000/svg"
   xmlns:sodipodi="http://sodipodi.sourceforge.net/DTD/sodipodi-0.dtd"
   xmlns:inkscape="http://www.inkscape.org/namespaces/inkscape"
   version="1.0"
   width="1200.000000pt"
   height="1200.000000pt"
   viewBox="0 0 1200.000000 1200.000000"
   preserveAspectRatio="xMidYMid meet"
   id="svg5398"
   inkscape:version="0.91 r13725"
   sodipodi:docname="uoft-logo.svg">
  <defs
     id="defs5446" />
  <sodipodi:namedview
     pagecolor="#070709"
     bordercolor="#666666"
     borderopacity="1"
     objecttolerance="10"
     gridtolerance="10"
     guidetolerance="10"
     inkscape:pageopacity="0.05882353"
     inkscape:pageshadow="2"
     inkscape:window-width="1440"
     inkscape:window-height="792"
     id="namedview5444"
     showgrid="false"
     inkscape:zoom="0.39333333"
     inkscape:cx="661.13343"
     inkscape:cy="729.81913"
     inkscape:window-x="0"
     inkscape:window-y="0"
     inkscape:window-maximized="1"
     inkscape:current-layer="g5402" />
  <metadata
     id="metadata5400">
Created by potrace 1.15, written by Peter Selinger 2001-2017
<rdf:RDF>
  <cc:Work
     rdf:about="">
    <dc:format>image/svg+xml</dc:format>
    <dc:type
       rdf:resource="http://purl.org/dc/dcmitype/StillImage" />
    <dc:title></dc:title>
  </cc:Work>
</rdf:RDF>
</metadata>
  <g
     transform="matrix(0.1,0,0,-0.1,-292.88136,1204.0678)"
     id="g5402"
     style="fill:#ffffff;fill-opacity:1;stroke:none">
    <path
       d="m 5461,11839 c -20,-19 -23,-29 -18,-78 3,-31 8,-66 12,-78 5,-17 1,-24 -22,-35 -15,-7 -35,-27 -43,-44 -14,-28 -17,-29 -40,-17 -50,26 -121,8 -154,-39 -21,-30 -20,-94 4,-145 19,-42 19,-43 0,-53 -40,-22 -55,-89 -30,-136 8,-14 41,-38 78,-56 58,-29 63,-33 43,-42 -17,-7 -31,-4 -62,13 -84,48 -139,48 -189,1 -42,-39 -41,-91 1,-148 l 31,-43 -15,-52 -14,-52 -7,40 c -13,78 -22,98 -49,119 -27,20 -29,20 -57,4 -32,-18 -31,-20 -45,49 -9,45 -47,83 -84,83 -24,0 -36,-8 -55,-36 -23,-35 -25,-35 -35,-15 -16,29 -66,53 -95,45 -13,-3 -35,-17 -48,-31 -20,-22 -23,-34 -22,-96 2,-70 1,-72 -30,-92 -24,-16 -32,-28 -34,-58 -3,-33 2,-43 35,-75 21,-20 47,-42 57,-48 37,-20 9,-35 -54,-28 -54,6 -61,4 -84,-19 -14,-15 -26,-37 -26,-50 0,-20 -4,-23 -29,-19 -37,5 -67,-11 -91,-51 -40,-65 -14,-138 58,-171 35,-16 41,-22 36,-42 -3,-13 -1,-39 6,-58 17,-52 49,-57 157,-25 23,7 45,10 49,6 12,-12 -28,-47 -53,-47 -13,0 -31,-9 -40,-20 -22,-25 -25,-25 -69,5 -76,52 -154,26 -154,-51 l 0,-31 -48,5 c -63,6 -101,-23 -109,-84 -4,-33 -1,-45 21,-71 15,-18 42,-37 62,-43 30,-10 34,-15 27,-33 -29,-88 65,-149 156,-102 31,15 41,12 41,-16 0,-9 -10,-19 -23,-23 -48,-12 -77,-45 -77,-86 0,-61 33,-92 103,-98 53,-4 57,-6 57,-29 0,-14 13,-38 30,-55 27,-27 36,-30 72,-25 23,3 61,19 85,36 24,17 48,31 53,31 16,0 42,-58 29,-65 -25,-16 -69,-90 -69,-117 0,-31 16,-68 34,-80 22,-15 76,-8 132,17 65,29 74,30 74,11 0,-27 30,-46 72,-46 63,0 103,31 139,106 29,61 32,64 48,50 44,-40 82,-9 128,105 15,38 33,69 40,69 19,0 127,-105 162,-157 17,-27 80,-130 140,-229 l 109,-182 -10,-48 c -15,-74 -66,-172 -112,-218 -26,-27 -93,-68 -183,-115 -79,-40 -170,-90 -203,-112 -34,-22 -73,-39 -89,-39 -16,0 -47,-7 -70,-15 -36,-12 -46,-12 -82,0 -110,39 -233,-6 -268,-98 -16,-41 -13,-133 4,-166 36,-71 114,-107 209,-97 81,9 100,9 171,1 42,-5 72,-3 100,7 35,12 46,12 75,0 23,-9 52,-12 89,-7 31,3 74,5 96,4 22,-1 64,-1 93,-1 28,1 72,1 97,1 25,0 75,0 113,0 37,0 85,0 107,-1 38,-1 80,-1 185,0 110,1 188,1 225,0 22,0 66,-1 98,0 31,0 75,1 97,1 105,-1 172,0 198,2 15,1 52,-2 82,-6 39,-5 67,-3 98,8 38,13 48,13 78,1 50,-21 140,-18 191,7 138,67 131,275 -12,340 -47,22 -139,25 -175,6 -33,-17 -95,0 -124,34 -33,40 -72,63 -200,118 -192,82 -246,120 -303,209 -42,65 -63,166 -63,300 0,213 71,361 221,461 34,23 64,41 68,41 4,0 15,-31 25,-70 19,-75 53,-116 89,-106 14,3 23,-7 41,-48 25,-57 76,-106 109,-106 12,1 33,7 47,15 23,12 28,11 60,-13 41,-31 99,-35 127,-10 13,12 35,17 71,16 45,-1 57,3 79,25 33,32 35,78 4,111 -19,20 -20,27 -10,49 7,15 22,27 41,31 21,4 33,15 41,36 10,26 17,30 47,30 36,0 80,32 80,58 0,6 12,23 26,37 23,23 30,25 57,16 69,-25 121,-2 133,57 5,25 8,27 52,24 36,-3 53,1 74,18 30,23 48,74 41,114 -7,34 -55,74 -107,88 -39,10 -42,14 -42,44 0,78 -85,108 -179,62 -44,-22 -45,-22 -60,-2 -8,10 -15,31 -15,46 0,16 -9,33 -21,41 -20,15 -20,15 13,22 42,9 78,42 78,72 0,27 5,27 98,11 78,-13 116,-2 141,44 14,24 14,30 -1,61 -16,34 -16,34 14,51 37,22 68,72 68,109 0,32 -21,77 -45,97 -17,14 -77,17 -113,6 -19,-7 -22,-4 -22,24 0,20 -9,40 -26,57 -22,22 -25,30 -15,45 18,29 13,92 -9,121 -28,35 -77,43 -136,23 -26,-9 -48,-15 -49,-13 -2,1 -5,25 -7,54 -4,46 -2,55 20,75 58,54 60,114 5,158 -24,19 -36,21 -92,17 -59,-5 -66,-3 -83,18 -35,45 -98,37 -165,-19 l -33,-28 -35,22 c -43,27 -63,21 -110,-31 -30,-33 -39,-38 -51,-28 -13,10 -12,16 9,38 52,56 61,110 26,155 -52,67 -123,70 -190,9 -31,-28 -42,-34 -49,-23 -4,7 -6,19 -3,26 3,8 0,28 -6,45 -10,29 -8,35 19,65 16,19 33,46 36,61 9,36 -21,88 -62,108 -32,15 -34,19 -34,66 0,40 -5,55 -25,74 -44,45 -130,28 -175,-35 -20,-28 -24,-30 -39,-17 -9,8 -27,18 -40,22 -12,4 -39,18 -58,31 -52,35 -96,32 -126,-8 -14,-18 -31,-53 -39,-78 -14,-44 -15,-44 -54,-42 -85,6 -115,-69 -66,-165 28,-54 28,-58 -8,-73 -17,-7 -37,-25 -45,-39 -13,-23 -14,-15 -9,84 6,126 -4,158 -49,163 -23,3 -27,8 -27,34 0,39 -27,96 -53,109 -11,6 -40,9 -64,6 -35,-4 -46,-1 -57,15 -45,65 -131,87 -175,47 z m 87,-43 c 15,-8 42,-32 60,-55 36,-44 55,-50 83,-25 10,9 25,14 33,11 18,-7 36,-68 36,-125 0,-49 20,-64 49,-38 17,16 19,16 24,-3 2,-11 2,-49 0,-84 l -6,-65 -37,5 c -24,4 -46,0 -58,-9 -12,-8 -36,-12 -61,-10 -40,4 -41,5 -41,41 0,45 -32,116 -58,130 -32,17 -70,13 -92,-9 -23,-23 -40,-19 -40,11 0,20 5,23 51,33 38,8 42,31 19,93 -23,62 -25,84 -8,101 15,15 13,15 46,-2 z m 653,-55 c 22,-17 24,-27 24,-97 0,-85 10,-98 56,-74 60,33 50,-97 -13,-167 -29,-31 -20,-56 25,-66 45,-11 46,-23 9,-96 -22,-44 -37,-59 -82,-83 -30,-16 -59,-33 -64,-39 -21,-20 -22,-6 -5,76 16,76 23,162 20,223 -1,32 -18,19 -26,-21 -4,-17 -20,-90 -37,-160 -24,-104 -33,-127 -47,-125 -10,2 -15,12 -13,28 1,14 5,48 8,76 9,77 -27,134 -85,134 -31,0 -26,19 7,26 46,10 52,13 58,29 4,9 -8,46 -25,84 -17,37 -31,77 -31,89 0,20 5,22 54,22 l 55,0 21,58 c 24,63 46,102 59,102 5,0 19,-9 32,-19 z m 303,3 c 11,-10 16,-34 16,-71 0,-55 0,-55 40,-70 63,-25 64,-53 5,-113 -47,-48 -55,-80 -20,-80 8,0 15,-7 15,-15 0,-8 -9,-15 -19,-15 -31,0 -77,-46 -100,-100 -19,-44 -25,-50 -51,-50 -28,0 -29,1 -19,29 16,44 8,102 -16,115 -11,6 -21,11 -23,12 -1,1 9,26 24,58 20,44 24,65 19,96 -8,49 -39,90 -69,90 -18,0 -22,6 -23,35 l -1,35 28,-20 c 15,-11 34,-20 42,-20 7,0 34,23 59,50 48,53 68,60 93,34 z m -1181,-205 c 12,-7 43,-31 69,-55 26,-24 52,-44 58,-44 6,0 25,20 42,45 18,25 35,45 40,45 19,0 40,-53 47,-119 4,-39 10,-74 14,-78 4,-4 23,-1 42,6 19,7 39,9 45,6 16,-10 13,-105 -4,-105 -7,0 -25,-9 -40,-21 -30,-24 -34,-64 -10,-110 15,-30 15,-31 -8,-24 -13,4 -23,8 -24,9 -41,90 -72,141 -105,170 -40,37 -64,40 -52,8 4,-9 22,-41 40,-70 49,-77 49,-78 5,-74 -45,4 -63,-12 -67,-60 -1,-18 -5,-32 -9,-32 -4,1 -20,4 -36,8 -37,7 -37,18 -5,60 15,19 23,40 19,49 -3,9 -35,26 -71,38 -36,12 -74,30 -85,41 -26,26 -19,60 15,76 16,8 31,20 34,29 3,8 -7,46 -23,84 -30,77 -28,93 17,116 29,15 26,15 52,2 z m 526,-224 c 32,-30 65,-55 73,-55 8,0 23,9 34,21 l 19,21 17,-22 c 23,-29 23,-53 -3,-125 l -21,-59 22,-18 c 13,-10 39,-18 61,-18 l 38,0 -11,-30 c -5,-17 -23,-37 -39,-45 -32,-17 -49,-43 -49,-74 0,-26 -2,-26 -49,-1 -34,17 -40,26 -51,72 -23,100 -41,158 -51,158 -13,0 -11,-108 2,-171 9,-42 9,-53 -2,-60 -22,-14 -37,-10 -44,10 -3,11 -14,23 -24,26 -24,7 -45,53 -32,69 10,12 7,19 -52,104 -33,46 -29,62 13,62 39,0 50,23 43,96 -4,48 -2,63 12,77 9,9 21,17 26,17 6,0 36,-25 68,-55 z m 958,13 c 31,-29 29,-39 -17,-93 -45,-52 -49,-74 -20,-100 38,-35 17,-72 -66,-113 -60,-30 -70,-46 -49,-78 15,-23 15,-27 1,-50 -17,-25 -57,-41 -75,-29 -6,3 -11,17 -11,31 0,45 -27,82 -61,86 l -31,3 61,69 c 62,70 71,86 48,86 -19,0 -56,-27 -113,-83 l -52,-49 -7,33 c -4,18 -16,53 -27,78 -21,50 -13,64 34,54 26,-5 30,-2 54,53 25,58 59,104 76,104 5,0 16,-16 25,-35 9,-19 24,-35 33,-35 18,0 86,46 109,73 19,24 60,21 88,-5 z m 385,-138 c 24,-33 37,-36 102,-18 40,11 47,10 66,-7 29,-26 25,-39 -21,-78 -37,-32 -40,-38 -34,-70 7,-35 6,-36 -35,-47 -28,-7 -56,-26 -83,-55 l -41,-43 -38,20 c -31,17 -68,60 -68,81 0,3 29,23 65,46 36,22 65,45 65,51 0,5 -2,10 -3,10 -15,0 -126,-44 -152,-60 -18,-11 -40,-18 -48,-14 -8,3 -43,-6 -76,-19 l -60,-24 -16,23 c -8,13 -15,27 -15,32 0,5 33,44 73,87 l 73,79 32,-23 c 38,-27 54,-23 114,24 53,43 71,44 100,5 z m -842,-127 c 20,-64 25,-105 15,-115 -3,-3 -42,6 -86,19 -45,12 -91,23 -103,23 -11,0 -28,5 -36,10 -13,8 -12,13 6,37 24,32 151,104 170,96 8,-3 23,-34 34,-70 z m -1138,15 c 35,-18 71,-43 81,-56 10,-12 38,-27 62,-33 l 44,-11 -5,-42 c -4,-27 0,-57 11,-86 10,-25 17,-63 16,-85 -1,-24 7,-53 18,-71 35,-58 161,-98 241,-77 33,9 35,8 55,-31 15,-31 18,-46 10,-58 -13,-24 -60,-23 -96,3 -20,14 -41,20 -69,18 -36,-3 -43,0 -59,27 -37,61 -93,88 -130,65 -11,-7 -22,1 -42,28 -14,21 -41,43 -58,51 -24,10 -31,18 -31,41 0,35 -10,42 -85,54 l -60,10 1,35 c 0,19 4,46 8,60 5,19 -1,38 -29,80 -19,30 -35,58 -35,62 0,17 41,48 65,48 14,0 53,-15 87,-32 z m -388,-30 c 8,-18 17,-54 20,-80 9,-57 28,-72 67,-52 15,7 29,19 32,26 10,27 29,-11 36,-70 9,-76 24,-96 68,-89 19,3 48,0 68,-9 19,-8 48,-14 65,-14 25,0 31,-4 28,-17 -2,-12 -12,-17 -28,-15 -86,8 -173,4 -234,-12 l -68,-18 -45,43 c -25,24 -58,68 -75,96 -34,61 -46,71 -54,48 -16,-42 61,-163 146,-229 47,-36 63,-100 31,-122 -10,-7 -22,-25 -25,-39 -10,-39 -24,-30 -41,29 -21,73 -35,83 -91,68 -56,-15 -74,-15 -74,0 0,6 -7,19 -16,29 -22,24 -11,47 26,60 47,17 39,44 -22,75 -52,26 -108,70 -108,86 0,4 18,19 40,33 l 40,25 -3,76 c -2,63 1,78 15,87 14,10 24,5 57,-27 47,-46 67,-44 100,7 13,20 26,37 28,37 2,0 10,-15 17,-32 z m 676,18 c 6,-8 37,-20 68,-27 45,-9 65,-19 95,-51 41,-43 41,-53 -3,-63 -16,-3 -65,-28 -109,-55 l -80,-48 -12,35 c -6,19 -8,53 -5,76 4,23 9,66 12,95 6,54 13,62 34,38 z m 1282,-126 c 32,-47 48,-49 103,-15 47,29 81,31 107,8 25,-23 24,-28 -24,-84 -37,-42 -48,-49 -80,-49 -21,0 -55,-6 -75,-14 -21,-7 -57,-19 -79,-25 -46,-12 -114,-78 -114,-110 0,-26 -16,-35 -24,-15 -4,10 5,29 24,50 33,38 45,73 37,106 -5,16 4,33 30,61 31,35 35,44 30,78 -5,36 1,47 28,48 6,0 22,-18 37,-39 z m -268,-26 c 3,-9 6,-30 6,-48 0,-37 15,-56 46,-56 57,0 52,-59 -12,-121 -39,-38 -42,-52 -14,-72 27,-19 18,-38 -33,-71 -23,-15 -55,-38 -72,-51 l -30,-24 33,-12 c 19,-6 32,-18 32,-28 0,-32 -102,-112 -188,-148 l -34,-14 6,38 c 4,21 30,86 57,145 50,109 56,128 39,128 -20,0 -99,-137 -135,-235 -6,-17 -10,-15 -26,20 -27,56 -22,126 9,141 43,22 45,29 23,88 -26,71 -27,110 -1,136 17,17 23,18 39,8 28,-17 48,3 56,55 11,66 30,90 66,82 23,-5 36,-2 52,13 23,20 57,41 68,42 4,0 10,-7 13,-16 z m 814,-26 c 15,-32 36,-35 89,-13 55,23 91,20 105,-10 14,-32 -6,-64 -73,-111 -43,-31 -69,-61 -69,-77 0,-3 16,-14 35,-26 36,-21 46,-53 23,-67 -7,-4 -55,-10 -108,-13 -89,-6 -95,-7 -98,-28 -2,-13 4,-33 12,-45 40,-57 -7,-88 -136,-88 -114,0 -130,5 -121,39 10,40 49,87 103,121 52,33 156,138 146,147 -3,3 -38,-14 -78,-38 -40,-24 -77,-46 -82,-48 -5,-2 -6,29 -2,72 7,73 7,76 -17,91 -14,10 -32,14 -42,10 -15,-6 -16,-4 -6,14 17,33 55,38 96,13 20,-12 41,-21 46,-21 6,0 35,25 64,56 61,63 91,68 113,22 z m -1353,-83 c 34,-36 66,-65 72,-65 6,0 25,11 41,25 28,23 30,24 45,7 11,-12 16,-36 16,-74 -1,-31 4,-73 11,-93 11,-34 10,-39 -15,-65 -39,-40 -42,-90 -13,-178 22,-65 23,-72 7,-72 -12,0 -20,14 -29,48 -24,101 -69,139 -127,109 -29,-15 -29,-15 -64,31 -19,25 -53,59 -77,75 -79,53 -90,96 -32,129 29,17 30,19 30,92 0,61 3,77 18,85 35,21 57,11 117,-54 z m 1047,-115 c -4,-66 -26,-131 -51,-154 -18,-16 -21,-16 -58,2 -73,38 -119,106 -111,164 4,32 55,47 149,45 l 75,-2 -4,-55 z m 526,18 c 7,-7 12,-31 12,-54 0,-52 14,-59 86,-43 64,14 84,3 84,-47 0,-24 -7,-38 -26,-51 -77,-54 -80,-59 -66,-95 29,-71 16,-78 -104,-58 -86,15 -114,5 -114,-39 0,-41 -16,-49 -95,-50 -181,-2 -285,20 -282,59 1,17 9,20 54,20 90,0 154,19 191,56 30,30 33,39 28,68 -7,39 3,46 66,46 52,0 107,27 119,58 13,33 3,75 -21,97 -19,17 -19,19 -2,31 22,17 54,18 70,2 z m -2408,-34 c 29,-6 31,-9 26,-37 -8,-41 -58,-126 -95,-161 -29,-28 -31,-28 -54,-13 -32,21 -63,89 -71,154 l -7,52 38,4 c 68,7 130,7 163,1 z m -597,-45 c 14,-6 42,-34 63,-61 40,-54 36,-52 125,-32 24,5 27,3 33,-37 6,-36 4,-46 -13,-59 -11,-8 -25,-29 -31,-46 -14,-40 6,-95 44,-119 40,-27 34,-52 -16,-66 -24,-7 -52,-21 -64,-31 -20,-18 -21,-18 -37,0 -16,17 -16,22 -2,56 15,34 15,40 0,62 -23,35 -56,39 -131,14 -55,-19 -68,-20 -75,-9 -12,20 -11,24 11,44 34,31 25,52 -28,69 -72,24 -92,42 -92,80 0,44 14,54 80,58 l 55,3 3,43 c 3,37 6,42 27,42 13,0 35,-5 48,-11 z m 934,-89 c 33,-62 36,-64 78,-50 47,15 65,2 41,-31 -18,-27 -21,-71 -5,-100 8,-15 6,-25 -10,-46 -31,-39 -27,-86 9,-116 16,-14 43,-28 60,-32 26,-6 30,-10 23,-28 -4,-12 -6,-43 -5,-68 3,-41 -1,-51 -32,-84 -60,-63 -83,-41 -111,105 -9,47 -21,109 -26,138 -6,28 -15,52 -20,52 -17,0 -22,-55 -12,-144 6,-50 10,-92 9,-94 -2,-1 -17,1 -33,4 -25,5 -32,13 -37,37 -4,18 -18,49 -31,69 -31,46 -31,61 -3,98 l 21,29 -36,45 c -43,52 -46,72 -12,88 22,10 25,18 25,59 0,120 60,158 107,69 z m 375,-62 c 16,-17 38,-49 49,-70 22,-42 44,-48 84,-22 43,28 50,19 85,-113 10,-42 12,-43 51,-43 34,0 40,-3 36,-17 -3,-10 -11,-46 -17,-80 -7,-35 -15,-63 -19,-63 -3,0 -30,24 -61,54 -76,76 -200,149 -200,118 0,-4 31,-33 69,-64 68,-55 121,-121 135,-165 7,-22 5,-23 -43,-23 -74,0 -101,13 -101,49 0,16 -3,32 -7,34 -5,3 -35,-4 -68,-14 -78,-25 -107,-22 -119,13 -8,22 -5,36 12,67 20,34 20,41 8,54 -8,8 -32,17 -54,21 -22,3 -50,15 -63,25 l -24,19 30,31 c 29,31 29,31 13,74 -10,27 -12,50 -7,64 10,27 55,40 80,24 28,-17 47,-13 55,12 8,27 23,47 36,47 6,0 23,-14 40,-32 z m -894,-29 c 20,-23 44,-55 52,-72 23,-47 69,-69 143,-68 35,0 76,5 92,11 25,9 32,8 52,-13 23,-22 23,-25 8,-53 -8,-16 -15,-36 -15,-45 0,-9 -6,-21 -13,-27 -10,-9 -17,-4 -31,18 -17,30 -62,60 -90,60 -8,0 -24,-9 -35,-21 -18,-19 -21,-20 -49,-5 -26,14 -66,17 -193,17 -17,0 -30,8 -39,23 -7,13 -25,34 -41,45 -36,27 -39,67 -6,80 89,35 106,45 111,67 4,13 9,24 11,24 3,0 22,-19 43,-41 z m 1743,-79 c 8,0 29,9 47,20 43,26 58,25 78,-5 16,-24 21,-26 88,-23 66,3 71,2 74,-18 2,-16 -8,-30 -40,-51 -41,-28 -43,-32 -40,-73 3,-54 -5,-59 -86,-59 -35,1 -66,-2 -69,-5 -3,-3 0,-19 7,-36 7,-17 10,-34 6,-37 -9,-9 -59,-8 -129,2 l -58,8 -12,-32 c -11,-30 -14,-32 -47,-26 -61,11 -110,28 -110,38 0,24 76,78 152,107 104,40 158,68 158,80 0,22 -108,-1 -247,-53 -56,-21 -93,-30 -93,-23 0,20 46,111 64,125 13,11 20,11 28,3 19,-19 29,-15 102,44 l 69,55 21,-20 c 12,-12 29,-21 37,-21 z m 505,-149 c 23,-4 65,-23 93,-42 48,-30 51,-34 35,-46 -10,-7 -32,-39 -48,-70 -31,-57 -65,-83 -128,-98 -26,-7 -30,-3 -53,46 -18,40 -25,71 -25,119 0,36 4,70 8,76 15,23 52,28 118,15 z m -2291,-51 c -5,-21 -1,-40 12,-63 l 20,-32 -49,-83 c -27,-45 -55,-82 -63,-82 -50,0 -146,188 -115,225 7,8 22,15 34,15 11,0 39,12 61,25 22,14 55,25 73,25 32,0 33,-1 27,-30 z m 157,3 49,-28 24,30 24,29 26,-24 c 14,-13 30,-41 35,-62 14,-49 46,-53 61,-8 6,17 15,30 20,30 17,0 40,-48 53,-111 14,-68 27,-81 56,-54 10,9 23,14 28,11 13,-8 32,-87 32,-136 0,-38 -2,-41 -22,-35 -29,9 -72,34 -179,107 -76,51 -119,70 -119,52 0,-19 62,-79 125,-124 66,-45 135,-114 124,-124 -25,-21 -146,-34 -182,-20 -13,5 -13,10 1,45 19,49 10,59 -56,59 -45,0 -105,20 -117,40 -4,6 2,21 14,34 35,37 27,54 -34,71 -62,18 -70,36 -30,67 32,25 31,36 -5,78 -31,37 -38,68 -18,88 18,18 35,15 90,-15 z m -641,-33 c 30,-22 60,-39 68,-38 8,2 22,16 31,32 9,16 22,32 29,34 20,7 105,-88 118,-132 7,-22 11,-41 9,-43 -2,-2 -23,1 -47,6 -89,21 -274,3 -248,-23 3,-3 36,-8 74,-11 149,-13 156,-14 145,-35 -5,-10 -10,-35 -10,-55 l 0,-37 -35,22 c -30,18 -45,21 -96,17 -34,-3 -73,-14 -93,-26 -39,-25 -55,-26 -81,-7 -18,13 -18,15 -2,39 30,45 22,60 -45,92 -48,23 -64,36 -66,54 -5,36 11,45 85,45 l 68,1 3,53 c 4,66 19,68 93,12 z m 1802,-88 c 8,-2 38,8 66,22 28,14 53,26 56,26 3,0 -6,-17 -19,-39 -64,-101 -82,-176 -101,-413 -5,-72 -4,-78 13,-78 12,0 50,37 102,101 45,55 84,99 86,97 2,-3 -2,-18 -8,-35 -15,-41 -5,-67 25,-58 12,3 42,9 67,11 l 45,5 -57,-32 c -109,-60 -208,-177 -248,-292 -64,-182 -45,-448 42,-578 50,-74 116,-125 233,-179 186,-86 255,-121 255,-128 0,-4 -16,-12 -35,-18 -28,-9 -45,-8 -77,3 -23,8 -59,13 -80,11 -34,-2 -41,1 -54,27 -26,50 -43,63 -150,116 -175,85 -202,139 -234,473 -7,65 -15,128 -20,140 -7,19 -8,19 -16,-9 -14,-55 -9,-295 9,-368 36,-147 94,-217 233,-283 80,-37 134,-80 134,-104 0,-4 -22,-3 -49,3 -37,7 -61,6 -101,-6 -45,-13 -56,-13 -86,-1 -18,8 -48,14 -67,14 -28,0 -35,5 -45,33 -19,54 -56,82 -107,82 -55,0 -92,-26 -127,-92 l -27,-50 -52,16 -51,16 6,43 c 3,23 24,77 46,120 38,73 70,165 70,205 0,43 -26,6 -97,-138 l -77,-155 -43,0 c -78,0 -134,-20 -178,-65 -39,-39 -43,-40 -71,-28 -40,17 -97,16 -142,-2 -103,-43 64,58 255,154 132,66 211,163 248,302 25,93 22,103 -77,267 -51,83 -109,180 -128,214 -44,78 -158,200 -212,227 l -40,20 43,11 c 60,16 82,37 75,72 -5,23 -2,28 14,28 11,0 30,10 41,21 19,19 21,28 14,82 -6,61 -6,61 14,43 33,-30 51,-94 60,-213 7,-102 11,-120 46,-190 29,-58 58,-97 116,-155 85,-84 113,-99 137,-74 46,45 21,333 -40,463 -31,66 -103,136 -163,158 -28,10 -51,19 -53,21 -2,1 11,17 27,35 17,18 31,37 31,41 0,4 12,3 26,-2 17,-7 38,-7 63,0 57,16 58,15 64,-65 4,-50 14,-94 32,-132 34,-75 142,-258 162,-275 61,-51 125,302 80,445 -14,45 -14,47 4,47 21,0 36,30 47,90 l 6,35 11,-40 c 7,-22 19,-41 28,-43 z m 643,47 c 3,-6 -11,-28 -32,-50 l -38,-39 19,-36 c 30,-56 19,-66 -98,-95 -45,-11 -48,-14 -44,-38 14,-67 14,-65 -33,-77 -25,-6 -71,-14 -102,-17 l -58,-6 16,37 c 23,57 43,82 76,100 42,23 88,62 88,74 0,30 -139,-29 -222,-94 -31,-24 -39,-27 -44,-15 -8,23 11,52 50,77 19,11 38,30 41,40 5,14 17,20 53,22 37,2 49,8 57,25 9,21 14,22 80,17 63,-5 74,-4 105,18 19,13 36,34 38,46 4,23 35,31 48,11 z m 500,-44 c 11,-44 32,-46 102,-9 35,19 72,34 82,34 28,0 43,-26 36,-64 -8,-40 3,-51 61,-61 52,-8 93,-39 93,-70 0,-34 -19,-44 -90,-47 l -64,-3 -8,-40 c -5,-22 -12,-43 -17,-48 -4,-4 -32,1 -62,12 -69,27 -73,26 -87,-5 -12,-24 -13,-25 -40,-9 -23,14 -27,22 -24,47 10,68 -41,104 -131,93 -38,-5 -57,-3 -62,5 -16,25 22,31 170,25 133,-5 148,-4 131,9 -19,15 -100,36 -140,36 -35,0 -37,10 -12,44 13,17 27,41 31,54 9,29 23,28 31,-3 z M 6027,9935 c 54,1 62,-2 67,-20 12,-42 5,-173 -12,-240 l -18,-70 -28,43 c -72,114 -106,191 -120,270 -5,31 -5,32 22,25 15,-5 55,-8 89,-8 z m -1248,-56 c 20,-14 31,-33 35,-59 4,-26 17,-47 42,-70 27,-23 34,-34 25,-43 -6,-6 -11,-21 -11,-34 0,-18 -6,-23 -26,-23 -16,0 -39,-13 -60,-34 -21,-21 -41,-33 -50,-29 -8,3 -40,-11 -70,-31 -73,-49 -104,-46 -122,9 -16,48 -25,55 -79,55 -30,0 -49,6 -64,21 -27,27 -21,40 34,66 47,23 47,23 47,73 0,59 10,63 71,24 24,-15 51,-24 67,-22 25,3 27,7 32,63 4,53 8,60 30,65 30,8 60,-2 99,-31 z m 2231,-49 c 25,0 61,4 79,10 25,7 39,6 49,-3 9,-7 46,-12 91,-12 l 76,0 -3,-47 c -3,-45 -2,-49 32,-69 37,-22 40,-27 30,-53 -4,-11 -19,-16 -51,-16 -41,0 -45,-2 -59,-35 -16,-39 -31,-42 -99,-21 -32,9 -40,17 -41,36 -1,14 -2,33 -3,43 -1,22 -48,42 -118,52 -43,6 -53,11 -53,26 0,10 -9,28 -21,40 -17,17 -31,20 -91,18 -55,-2 -72,1 -79,13 -7,13 -2,17 28,23 21,3 48,12 61,19 20,10 32,9 75,-5 29,-10 72,-18 97,-19 z m -1322,14 c 82,-34 141,-120 168,-246 20,-95 31,-268 17,-268 -23,0 -142,141 -173,204 -28,57 -34,80 -40,178 -5,62 -11,121 -15,131 -9,21 -4,21 43,1 z m -524,-92 c 2,-4 1,-14 -4,-22 -10,-16 14,-70 33,-71 6,0 -8,-9 -33,-20 -80,-36 -228,-159 -190,-159 5,0 64,27 132,60 68,33 138,63 157,67 33,6 34,6 27,-23 -4,-16 -18,-53 -32,-83 l -24,-54 -23,21 c -13,12 -31,22 -39,22 -21,0 -49,-41 -72,-103 -12,-33 -29,-55 -50,-68 -43,-26 -60,-24 -73,11 -6,16 -19,33 -28,36 -9,4 -52,-7 -96,-25 -45,-17 -85,-29 -90,-25 -21,13 -7,56 31,98 45,49 47,56 23,97 -16,27 -16,30 3,56 18,24 29,28 78,31 64,3 78,18 53,56 -9,13 -13,26 -10,30 14,13 75,5 119,-16 44,-22 46,-22 59,-4 12,16 12,23 -1,48 -8,16 -12,33 -9,38 7,12 52,13 59,2 z m 1714,-39 c 4,-36 7,-38 107,-53 38,-6 71,-12 72,-14 2,-2 -1,-15 -6,-30 -14,-35 -6,-52 32,-66 84,-31 79,-27 61,-55 -16,-25 -16,-27 15,-66 27,-33 31,-43 20,-55 -9,-11 -24,-14 -63,-9 -44,6 -54,4 -70,-14 -27,-29 -48,-26 -96,14 -48,40 -65,43 -80,15 -13,-25 -42,-26 -63,-2 -8,9 -28,44 -44,77 -27,56 -31,60 -62,58 -28,-1 -35,3 -46,30 -14,35 -30,127 -22,127 18,0 106,-46 163,-85 70,-47 84,-53 84,-32 0,24 -61,86 -121,123 -32,20 -57,39 -54,42 11,11 102,31 135,29 32,-2 35,-5 38,-34 z M 5035,8399 c 32,-15 56,-41 113,-124 40,-57 72,-107 72,-110 0,-11 -112,-4 -143,9 -27,11 -36,11 -51,0 -27,-19 -89,-27 -133,-15 -107,29 -137,160 -54,235 42,38 121,40 196,5 z m 622,6 c 32,-14 39,-14 59,0 33,21 112,19 150,-4 18,-11 65,-68 107,-130 l 75,-111 -47,0 c -27,0 -62,5 -79,11 -25,9 -41,7 -76,-6 -56,-21 -104,-14 -146,22 -25,21 -111,138 -163,220 -12,19 74,17 120,-2 z m 829,-1 c 30,-14 35,-14 56,0 30,22 112,21 150,-1 23,-14 159,-196 176,-235 5,-12 -91,-10 -127,3 -25,9 -40,8 -73,-6 -52,-20 -108,-12 -147,21 -28,23 -145,186 -157,218 -5,13 2,16 41,16 26,0 62,-7 81,-16 z"
       id="path5404"
       style="fill:#337ab7;fill-opacity:1"
       inkscape:connector-curvature="0" />
    <path
       d="m 3557,7893 c -11,-11 -8,-2583 3,-2738 39,-536 178,-1031 431,-1533 54,-109 99,-198 99,-198 0,-1 -21,-7 -47,-14 -125,-31 -220,-119 -297,-276 -113,-230 -179,-383 -193,-449 -27,-125 -4,-275 63,-408 34,-68 103,-174 134,-207 8,-9 29,-31 45,-50 17,-19 75,-72 130,-118 55,-45 110,-91 122,-102 13,-10 26,-20 30,-22 5,-1 46,-28 93,-59 207,-138 470,-274 700,-364 52,-20 113,-45 135,-55 22,-10 46,-20 54,-22 9,-3 -14,-29 -60,-67 -41,-35 -97,-83 -125,-107 -31,-25 -63,-65 -78,-96 l -26,-52 0,-303 c 0,-288 1,-305 21,-346 36,-73 140,-128 304,-159 102,-19 1708,-19 1810,0 150,29 259,82 302,148 21,33 22,42 23,346 l 1,312 -27,53 c -15,32 -46,70 -77,97 -29,24 -85,72 -126,107 -46,38 -69,64 -60,67 8,2 32,12 54,22 22,10 83,34 135,55 52,20 111,45 131,56 20,10 44,19 53,19 9,0 16,5 16,10 0,6 5,10 10,10 12,0 187,85 230,111 14,9 81,49 150,89 69,40 141,86 161,102 20,15 41,28 47,28 6,0 12,3 14,8 2,4 36,34 77,67 246,198 383,391 425,597 38,184 15,264 -190,682 -79,160 -190,260 -313,281 l -39,6 41,72 c 45,80 194,387 201,417 4,13 49,129 61,155 28,61 116,364 150,515 92,416 97,518 93,2050 l -3,1265 -2441,3 c -1342,1 -2444,-1 -2447,-5 z m 4833,-958 0,-915 -2390,0 -2390,0 0,915 0,915 2390,0 2390,0 0,-915 z M 4746,5765 c 81,-40 84,-50 84,-297 0,-118 -3,-297 -7,-397 -6,-165 -8,-180 -22,-167 -9,7 -36,24 -60,36 -68,34 -176,25 -296,-25 -69,-29 -108,-39 -167,-43 l -78,-5 0,402 0,401 74,0 c 71,0 76,2 147,48 94,62 118,70 205,71 56,1 80,-4 120,-24 z m 426,15 c 20,-6 67,-32 105,-58 66,-45 71,-47 151,-50 l 82,-4 0,-400 0,-401 -82,6 c -66,4 -104,14 -187,47 -96,39 -110,42 -181,38 -66,-2 -84,-8 -128,-35 l -52,-32 0,408 0,407 29,28 c 16,15 46,34 67,41 46,17 144,19 196,5 z m 1854,-9 c 23,-10 51,-32 62,-49 22,-30 22,-37 22,-432 l 0,-402 -22,16 c -102,75 -191,79 -351,17 -91,-35 -118,-41 -182,-41 l -75,0 0,394 0,394 78,3 c 73,4 81,7 142,48 36,25 81,51 100,57 54,20 177,17 226,-5 z m 442,4 c 20,-9 66,-35 102,-58 59,-39 70,-42 142,-46 l 78,-3 0,-394 0,-394 -80,0 c -69,0 -92,5 -165,35 -158,66 -233,68 -329,10 l -56,-34 0,408 0,407 28,27 c 15,14 43,33 62,41 47,20 170,21 218,1 z m -3326,-542 3,-408 102,-3 c 97,-3 105,-1 209,38 170,65 228,64 320,-6 59,-45 103,-46 152,-3 83,73 157,75 319,10 100,-41 105,-42 205,-39 l 103,3 3,408 c 1,224 5,407 8,407 3,0 19,-9 35,-21 l 29,-20 0,-405 0,-404 -323,0 -322,0 -38,-26 c -21,-14 -54,-28 -73,-31 -37,-6 -114,18 -134,43 -10,12 -66,14 -336,14 l -324,0 0,409 0,409 23,15 c 12,9 25,16 29,16 4,1 9,-182 10,-406 z m 2278,10 c 0,-219 4,-404 9,-412 7,-10 33,-12 117,-9 99,4 118,8 199,42 149,63 234,60 317,-13 48,-42 95,-42 142,-1 84,74 150,77 318,15 117,-44 125,-46 217,-43 l 96,3 3,408 c 1,224 5,407 8,407 3,0 18,-7 34,-15 l 30,-16 0,-409 0,-410 -329,0 c -275,0 -331,-2 -341,-14 -6,-8 -32,-23 -56,-32 -38,-15 -51,-15 -87,-4 -23,7 -54,21 -69,31 -24,18 -49,19 -347,19 l -321,0 0,409 0,409 23,15 c 12,9 25,16 30,16 4,1 7,-178 7,-396 z m -2398,-75 3,-423 335,-5 335,-5 54,-29 c 72,-37 157,-35 220,7 l 41,27 335,0 335,0 0,425 0,425 30,0 30,0 0,-460 0,-460 -370,0 -369,0 -37,-25 c -67,-46 -156,-46 -225,-1 l -39,26 -370,0 -370,0 0,460 0,460 30,0 30,0 2,-422 z m 2280,0 3,-423 337,-3 338,-2 36,-25 c 67,-46 166,-46 234,-1 l 39,26 333,2 333,3 3,423 2,422 30,0 30,0 0,-460 0,-460 -370,0 -369,0 -36,-24 c -67,-46 -153,-46 -220,0 l -36,24 -372,2 -372,3 -3,458 -2,457 30,0 30,0 2,-422 z m 125,-949 c 157,-36 288,-111 413,-239 119,-120 178,-239 200,-400 12,-91 8,-154 -21,-280 -38,-165 -165,-386 -274,-477 -30,-24 -70,-77 -112,-147 -97,-161 -166,-247 -309,-386 -179,-174 -271,-220 -439,-220 -90,0 -99,4 -114,43 -23,59 27,180 121,296 55,69 205,193 364,301 164,112 200,144 219,194 10,25 15,51 12,58 -2,7 -37,18 -78,25 -144,23 -225,78 -275,185 -22,48 -29,77 -28,123 0,70 9,90 98,209 68,91 96,158 78,186 -14,23 -26,15 -33,-22 -7,-43 -21,-68 -85,-153 -64,-87 -82,-122 -94,-184 -12,-62 8,-145 50,-213 16,-27 26,-48 21,-48 -20,0 -128,42 -189,74 l -67,36 3,67 c 4,98 -9,188 -28,188 -13,0 -15,-20 -12,-130 2,-93 -1,-136 -10,-152 -7,-12 -76,-73 -153,-135 l -140,-113 -103,-3 -103,-4 7,26 c 8,32 0,33 -42,1 -57,-44 -69,-32 -29,28 25,35 28,37 83,37 72,0 119,24 145,73 17,33 18,43 7,90 -31,128 -67,175 -178,231 -71,36 -120,40 -234,22 -109,-18 -166,-20 -187,-7 -11,7 -9,11 8,20 14,8 21,21 21,42 0,64 -44,97 -106,80 -30,-8 -38,-6 -65,16 l -31,26 29,23 c 21,17 25,25 17,34 -9,9 -17,9 -32,1 -28,-15 -32,-14 -32,6 0,9 35,51 78,92 65,64 102,89 232,158 189,100 212,109 342,124 90,10 118,18 218,64 102,47 258,101 390,135 121,32 307,32 447,-1 z M 4194,3263 c 37,-60 105,-162 151,-228 46,-65 81,-123 79,-127 -8,-12 -96,-10 -135,3 -51,17 -99,57 -115,95 -9,20 -21,34 -32,34 -11,0 -50,-48 -106,-130 l -89,-130 -19,27 c -35,52 -62,163 -62,248 0,66 5,91 28,140 43,94 104,148 188,164 24,5 44,9 44,10 1,1 32,-47 68,-106 z m 3783,75 c 145,-67 200,-283 121,-472 -41,-97 -38,-98 -108,6 -87,128 -119,168 -135,168 -8,0 -22,-16 -31,-36 -19,-40 -63,-76 -113,-93 -41,-13 -128,-15 -136,-2 -3,5 25,52 62,103 56,77 117,171 219,335 16,26 51,24 121,-9 z m -2565,-55 c 28,-30 62,-118 54,-140 -8,-19 -56,-16 -120,8 -55,21 -57,21 -76,4 -12,-10 -26,-30 -33,-44 -20,-42 -35,-36 -43,16 l -7,48 -13,-30 c -8,-16 -13,-46 -11,-65 1,-25 -2,-36 -14,-38 -33,-6 -40,96 -9,145 24,40 57,58 139,74 35,7 71,20 80,30 21,23 23,23 53,-8 z M 3815,3042 c 1,-154 49,-267 180,-423 112,-132 348,-321 555,-444 80,-47 372,-195 386,-195 14,0 315,-156 362,-189 117,-79 190,-182 211,-296 12,-63 15,-375 5,-438 l -7,-38 -29,51 c -53,92 -189,179 -441,279 -488,196 -806,371 -1069,590 -114,96 -169,156 -245,269 -79,118 -114,214 -121,327 -7,140 2,168 162,508 25,53 47,97 49,97 1,0 2,-44 2,-98 z m 4460,-82 c 101,-216 117,-260 123,-353 27,-429 -439,-848 -1363,-1227 -110,-45 -233,-99 -275,-120 -136,-68 -234,-153 -256,-220 l -8,-25 -7,25 c -11,39 -10,377 1,448 16,94 46,149 124,227 82,81 175,138 377,231 362,166 580,292 774,449 298,240 433,454 423,670 -2,41 0,71 3,67 3,-4 41,-81 84,-172 z m -2170,64 c 61,-9 137,-27 170,-39 33,-13 85,-28 116,-35 49,-9 56,-14 52,-30 -5,-19 -15,-20 -200,-20 -142,0 -213,-4 -264,-16 -39,-9 -73,-13 -76,-10 -12,12 27,52 73,76 48,25 49,25 19,28 -46,6 -101,-15 -130,-50 -23,-28 -28,-29 -41,-16 -14,14 -12,19 18,53 33,39 97,74 133,75 11,0 70,-7 130,-16 z m -1934,-98 c 44,-51 107,-78 184,-79 36,-1 64,-4 62,-7 -12,-26 -224,-329 -230,-330 -11,0 -145,135 -181,182 l -28,37 79,115 c 43,64 79,116 81,116 1,0 16,-15 33,-34 z m 3772,-82 78,-115 -57,-70 c -51,-63 -141,-149 -154,-149 -5,1 -222,314 -227,329 -2,3 26,6 61,7 76,1 142,30 183,79 15,18 30,34 33,34 3,0 40,-52 83,-115 z M 4575,2729 c 44,-55 92,-112 106,-127 14,-15 59,-65 100,-111 68,-78 211,-220 369,-369 61,-57 165,-147 275,-237 26,-22 57,-48 67,-57 10,-10 23,-18 28,-18 6,0 13,-7 16,-15 4,-8 11,-15 18,-15 6,0 28,-15 48,-33 32,-28 240,-175 286,-202 9,-6 38,-23 64,-38 l 47,-29 43,24 c 24,13 45,26 46,31 2,4 8,7 13,7 5,0 17,7 26,15 40,32 235,165 244,165 5,0 9,3 9,8 0,4 36,34 81,67 44,33 90,69 102,81 12,11 47,40 77,65 63,51 53,41 161,140 46,42 104,93 128,115 118,104 392,401 497,537 20,26 41,47 45,47 5,0 9,5 9,11 0,17 30,43 39,33 26,-32 61,-84 61,-92 0,-6 4,-12 8,-14 5,-1 25,-28 45,-58 20,-30 41,-60 47,-67 5,-7 10,-17 10,-23 0,-5 4,-10 8,-10 5,0 15,-12 23,-27 8,-16 20,-34 27,-41 6,-7 12,-17 12,-22 0,-10 -156,-127 -256,-192 -104,-68 -209,-124 -384,-207 -379,-179 -443,-215 -537,-304 -72,-67 -107,-119 -132,-195 -19,-56 -21,-85 -21,-310 0,-193 3,-259 15,-291 14,-42 51,-96 93,-139 12,-13 22,-25 22,-27 0,-3 -255,-5 -567,-5 l -567,0 33,32 c 50,49 89,110 101,159 7,29 10,135 8,299 l -3,255 -32,68 c -39,82 -121,171 -215,233 -37,25 -157,88 -265,140 -311,149 -427,209 -529,273 -130,83 -284,199 -284,217 0,8 3,14 8,14 4,0 16,16 26,35 11,19 23,35 28,35 4,0 8,7 8,15 0,8 4,15 8,15 5,0 13,10 19,23 6,12 32,53 59,91 27,37 54,75 59,84 21,35 26,42 33,41 4,0 43,-45 87,-100 z m 630,-1512 c 109,-55 204,-128 230,-177 13,-25 19,-65 17,-108 -1,-13 -27,-49 -59,-84 l -58,-60 -99,7 c -54,4 -124,13 -155,21 -158,41 -251,130 -211,203 5,10 53,54 107,98 54,45 109,93 122,107 27,29 37,28 106,-7 z m 1696,7 c 13,-15 68,-62 122,-107 54,-44 102,-88 107,-98 27,-49 -6,-108 -84,-154 -58,-33 -174,-63 -284,-71 l -94,-7 -54,54 c -65,64 -80,101 -64,158 14,52 57,101 132,152 52,35 173,99 189,99 3,0 16,-12 30,-26 z M 4844,885 c 10,-27 122,-91 202,-116 l 79,-24 880,0 880,0 80,27 c 79,27 170,82 187,113 24,41 28,2 28,-240 0,-212 -3,-261 -16,-295 -30,-75 -143,-129 -314,-150 -118,-14 -1587,-13 -1705,1 -105,13 -213,47 -259,83 -63,47 -66,65 -66,355 0,235 6,293 24,246 z"
       id="path5406"
       style="fill:#337ab7;fill-opacity:1"
       inkscape:connector-curvature="0" />
    <path
       d="m 5977,7784 c -4,-4 -7,-22 -7,-40 0,-31 -2,-33 -37,-36 -33,-3 -38,-6 -38,-28 0,-22 5,-25 37,-28 35,-3 37,-5 40,-40 2,-29 7,-37 23,-37 16,0 21,8 23,37 3,35 5,37 40,40 32,3 37,6 37,28 0,22 -5,25 -37,28 -35,3 -37,5 -40,40 -3,35 -24,53 -41,36 z"
       id="path5408"
       style="fill:#337ab7;fill-opacity:1"
       inkscape:connector-curvature="0" />
    <path
       d="m 5847,7563 c -4,-3 -7,-44 -7,-90 l 0,-83 -51,0 c -33,0 -96,15 -187,46 -199,67 -309,65 -418,-9 -130,-87 -148,-240 -52,-431 36,-72 118,-193 152,-225 33,-31 92,-37 153,-17 83,28 122,90 89,141 -24,36 -49,33 -41,-4 5,-23 2,-32 -16,-45 -27,-18 -42,-12 -34,15 5,14 -1,28 -19,46 -32,32 -33,57 -4,77 36,26 67,19 104,-20 41,-43 44,-32 7,22 -55,80 -59,137 -13,179 17,15 24,16 50,5 57,-24 69,-77 44,-192 -4,-16 -2,-28 4,-28 5,0 12,13 15,30 13,62 75,90 112,50 16,-18 17,-24 5,-60 -10,-32 -11,-42 0,-55 10,-12 9,-16 -5,-21 -25,-10 -49,8 -53,40 -4,29 -12,32 -30,14 -15,-15 -16,-53 -2,-79 43,-78 280,-57 280,26 0,2 -16,-3 -36,-11 -55,-23 -64,-15 -64,60 0,36 4,67 9,70 5,3 26,-1 46,-10 44,-18 49,-15 35,20 -5,15 -8,32 -4,37 3,5 41,9 85,9 85,0 89,-3 69,-54 -11,-30 -13,-30 38,-12 22,8 43,12 46,9 3,-4 6,-37 6,-75 0,-76 -4,-79 -67,-53 l -35,15 14,-23 c 27,-41 76,-58 155,-55 60,3 76,7 98,28 21,20 25,32 23,65 -3,45 -28,56 -38,16 -7,-30 -31,-46 -55,-37 -13,5 -15,10 -6,19 6,8 8,33 4,65 -5,49 -4,52 22,64 39,17 75,-5 98,-62 l 18,-45 -6,45 c -3,25 -9,64 -12,87 -5,39 -2,46 30,78 42,42 65,44 92,7 29,-40 25,-92 -11,-144 -46,-65 -51,-88 -9,-45 41,42 81,49 108,19 23,-26 21,-45 -8,-80 -14,-17 -23,-37 -19,-45 9,-24 -13,-30 -34,-9 -14,14 -18,28 -14,47 4,22 1,26 -14,23 -10,-2 -25,-15 -34,-31 -14,-25 -13,-30 5,-65 23,-42 75,-72 140,-79 68,-8 105,16 167,110 81,122 95,148 123,222 76,201 -10,362 -217,404 -74,16 -123,8 -291,-45 -85,-27 -156,-44 -187,-44 l -49,0 -3,88 c -3,79 -5,87 -23,87 -19,0 -20,-8 -23,-217 l -2,-218 -100,0 -100,0 0,198 c 0,108 -3,207 -6,220 -6,21 -33,30 -47,15 z m -294,-170 112,-37 -58,-8 c -58,-7 -139,-38 -167,-62 -8,-8 -48,-19 -88,-26 -87,-14 -144,-52 -181,-120 -22,-38 -25,-41 -32,-23 -33,90 -17,176 45,238 86,85 192,96 369,38 z m 1192,10 c 105,-55 146,-155 111,-268 l -13,-40 -15,35 c -31,71 -92,114 -186,131 -31,5 -88,26 -127,45 -42,21 -94,37 -130,42 l -59,7 109,38 c 99,34 118,37 190,34 56,-2 92,-10 120,-24 z M 5720,7289 c 25,-5 62,-21 83,-35 33,-21 37,-29 37,-65 l 0,-40 -38,31 c -43,34 -109,57 -124,42 -6,-6 9,-21 39,-40 55,-35 100,-79 90,-88 -7,-7 -40,-7 -90,2 -29,5 -41,13 -48,33 -24,64 -119,124 -163,103 -41,-19 -79,-78 -84,-133 -4,-42 -9,-52 -33,-65 -16,-8 -33,-23 -39,-33 -14,-27 -13,-78 4,-109 43,-85 35,-118 -16,-64 -69,71 -63,155 16,261 30,40 32,51 11,51 -44,0 -134,-120 -135,-180 l -1,-25 -14,25 c -21,36 -18,107 5,155 25,52 81,85 158,92 33,3 65,13 77,23 65,57 171,81 265,59 z m 748,-19 c 26,-12 56,-29 67,-39 13,-12 41,-20 76,-23 114,-9 179,-72 179,-176 0,-29 -5,-61 -12,-72 -11,-17 -14,-14 -25,31 -7,28 -24,65 -38,83 -26,34 -90,75 -100,64 -4,-4 12,-33 35,-66 44,-61 60,-123 46,-176 -8,-31 -63,-96 -81,-96 -15,0 -7,31 27,107 17,38 18,44 4,77 -8,20 -29,44 -46,54 -26,15 -30,23 -30,58 0,69 -73,153 -122,141 -45,-12 -93,-52 -113,-94 -16,-35 -25,-42 -48,-43 -16,0 -36,-4 -46,-9 -10,-6 -27,-7 -39,-4 -20,5 -20,7 -5,29 8,13 42,42 75,64 43,29 56,42 44,46 -23,9 -86,-14 -128,-48 l -38,-29 0,40 c 0,33 5,43 32,62 72,52 194,59 286,19 z"
       id="path5410"
       style="fill:#337ab7;fill-opacity:1"
       inkscape:connector-curvature="0" />
    <path
       d="m 5140,6832 c 0,-7 11,-39 25,-72 14,-33 32,-88 40,-121 7,-34 18,-66 24,-72 7,-7 42,4 108,36 104,48 160,65 313,94 136,25 554,25 690,0 150,-28 244,-56 326,-98 42,-21 82,-39 90,-39 7,0 16,12 20,28 14,64 47,170 66,205 11,22 17,42 13,45 -9,10 -38,-32 -87,-124 l -42,-81 -61,27 c -338,154 -1001,155 -1337,2 -66,-30 -66,-30 -72,-8 -6,24 -81,153 -102,176 -10,10 -14,11 -14,2 z"
       id="path5412"
       style="fill:#337ab7;fill-opacity:1"
       inkscape:connector-curvature="0" />
    <path
       d="m 5778,6549 c -122,-12 -278,-45 -354,-75 -232,-93 -228,-234 9,-322 68,-26 84,-28 42,-5 -112,58 -165,112 -165,166 0,54 97,108 265,147 125,30 235,40 425,40 254,0 440,-31 577,-96 89,-42 111,-74 90,-127 -17,-39 -76,-93 -131,-118 -23,-10 -33,-19 -24,-19 24,0 123,45 156,70 142,112 34,241 -254,305 -188,42 -425,54 -636,34 z"
       id="path5414"
       style="fill:#337ab7;fill-opacity:1"
       inkscape:connector-curvature="0" />
    <path
       d="m 5707,6405 c -159,-23 -275,-63 -297,-104 -25,-48 0,-84 81,-120 122,-54 412,-82 657,-63 297,23 432,70 432,151 0,53 -64,88 -220,122 -126,27 -505,35 -653,14 z m 596,-59 c 154,-26 241,-63 216,-92 -17,-21 -127,-52 -251,-70 -146,-21 -500,-15 -628,10 -101,21 -180,53 -180,73 0,31 150,74 320,93 114,12 414,4 523,-14 z"
       id="path5416"
       style="fill:#337ab7;fill-opacity:1"
       inkscape:connector-curvature="0" />
    <path
       d="m 3839,2648 c -1,-7 0,-17 1,-23 5,-17 3,-34 -24,-207 -22,-139 -24,-171 -14,-188 7,-11 16,-20 20,-20 4,0 52,43 107,95 69,67 104,93 115,89 29,-11 17,21 -22,59 -21,20 -41,37 -45,37 -12,0 -8,-38 5,-42 12,-4 -60,-96 -111,-142 -21,-19 -21,-19 -21,5 1,36 36,219 44,227 4,3 11,0 17,-8 8,-13 10,-13 18,-1 7,10 -3,31 -32,73 -41,58 -56,70 -58,46 z"
       id="path5418"
       style="fill:#337ab7;fill-opacity:1"
       inkscape:connector-curvature="0" />
    <path
       d="m 4087,2368 c -2,-7 0,-20 6,-28 7,-12 -6,-46 -47,-129 -47,-93 -60,-112 -76,-108 -10,3 -21,-1 -24,-9 -4,-11 38,-53 147,-144 18,-14 21,-13 43,15 13,17 24,35 24,42 0,21 -21,26 -39,9 -24,-22 -33,-20 -65,13 l -28,29 27,52 26,52 25,-23 c 14,-13 23,-32 22,-43 -5,-34 17,-28 40,12 16,29 19,41 10,50 -8,8 -15,8 -23,2 -9,-7 -19,-5 -35,8 l -22,18 26,52 c 14,29 30,52 34,52 5,0 20,-13 35,-28 22,-23 26,-34 21,-59 -3,-18 -1,-33 5,-37 13,-8 56,73 44,84 -27,26 -159,130 -165,130 -3,0 -8,-6 -11,-12 z"
       id="path5420"
       style="fill:#337ab7;fill-opacity:1"
       inkscape:connector-curvature="0" />
    <path
       d="m 4343,2175 c -3,-10 0,-20 6,-25 10,-5 -2,-40 -45,-129 -46,-98 -61,-121 -75,-118 -21,6 -35,-23 -17,-35 7,-5 50,-31 96,-59 l 84,-51 28,33 c 34,39 35,43 17,58 -11,8 -19,5 -37,-14 l -23,-24 -38,20 c -22,11 -39,26 -39,34 0,8 26,66 57,129 49,99 59,113 74,105 12,-6 20,-5 25,3 7,12 -22,39 -76,71 -28,17 -31,17 -37,2 z"
       id="path5422"
       style="fill:#337ab7;fill-opacity:1"
       inkscape:connector-curvature="0" />
    <path
       d="m 4577,2036 c -3,-8 -1,-18 5,-24 8,-8 -1,-37 -32,-104 -53,-114 -61,-165 -31,-206 25,-35 77,-62 120,-62 49,0 101,55 147,154 29,65 43,85 56,82 9,-2 19,2 22,10 8,20 -92,70 -108,54 -8,-8 -7,-14 7,-21 23,-13 22,-17 -19,-104 -63,-133 -111,-166 -162,-112 -32,34 -27,66 22,172 38,81 48,95 67,93 44,-6 29,22 -29,51 -46,23 -61,27 -65,17 z"
       id="path5424"
       style="fill:#337ab7;fill-opacity:1"
       inkscape:connector-curvature="0" />
    <path
       d="m 4890,1841 c -17,-34 -17,-41 -5,-51 12,-10 19,-7 38,15 21,25 26,26 48,15 13,-7 25,-14 27,-15 2,-2 -22,-59 -54,-129 -53,-117 -58,-125 -80,-120 -17,4 -24,2 -24,-9 0,-20 119,-72 134,-57 7,7 4,14 -9,24 -21,15 -21,14 60,189 35,76 37,78 58,64 17,-12 21,-24 20,-51 -3,-49 27,-50 50,-1 9,20 17,38 17,41 0,5 -244,124 -255,124 -2,0 -14,-18 -25,-39 z"
       id="path5426"
       style="fill:#337ab7;fill-opacity:1"
       inkscape:connector-curvature="0" />
    <path
       d="m 7865,2352 c -107,-50 -142,-169 -85,-282 75,-148 286,-75 289,100 1,58 -19,110 -57,152 -46,48 -89,57 -147,30 z m 79,-53 c 48,-38 82,-129 70,-189 -8,-36 -49,-80 -76,-80 -98,0 -174,199 -102,265 33,31 73,32 108,4 z"
       id="path5428"
       style="fill:#337ab7;fill-opacity:1"
       inkscape:connector-curvature="0" />
    <path
       d="m 7623,2179 c -47,-33 -57,-60 -20,-56 21,2 23,-4 34,-88 6,-49 12,-108 12,-130 l 0,-40 -22,26 c -12,15 -49,57 -82,94 -51,58 -57,68 -42,76 18,11 23,39 7,39 -6,0 -35,-14 -65,-31 -54,-30 -72,-59 -37,-59 9,0 67,-49 127,-110 60,-60 115,-110 121,-110 31,0 34,26 22,199 -8,122 -8,175 0,183 10,10 6,38 -7,38 -3,-1 -25,-14 -48,-31 z"
       id="path5430"
       style="fill:#337ab7;fill-opacity:1"
       inkscape:connector-curvature="0" />
    <path
       d="m 7218,1950 c -112,-57 -101,-32 -119,-260 -9,-111 -16,-148 -28,-157 -11,-8 -13,-15 -5,-23 15,-15 115,27 107,46 -3,9 -13,12 -24,9 -17,-6 -19,-1 -19,54 0,65 12,82 71,96 23,6 28,2 47,-41 19,-45 19,-49 4,-60 -13,-9 -14,-16 -6,-24 9,-9 38,2 115,40 57,29 105,54 107,55 2,2 -2,21 -9,43 -8,29 -16,38 -28,35 -13,-3 -16,-12 -13,-33 4,-26 -1,-31 -45,-54 l -50,-25 -21,45 c -12,24 -22,48 -22,52 0,5 16,16 36,25 28,14 39,15 50,6 27,-22 35,4 17,49 -11,29 -22,42 -32,40 -10,-2 -15,-12 -13,-24 2,-14 -8,-26 -36,-42 l -38,-21 -27,55 c -15,30 -27,59 -27,65 0,5 20,19 45,30 l 46,20 19,-23 c 15,-18 21,-20 31,-11 10,10 9,20 -7,48 -10,19 -21,35 -24,34 -3,0 -49,-22 -102,-49 z"
       id="path5432"
       style="fill:#337ab7;fill-opacity:1"
       inkscape:connector-curvature="0" />
    <path
       d="m 5205,485 c -36,-94 -63,-155 -72,-155 -7,0 -13,-9 -13,-20 0,-18 7,-20 55,-20 48,0 55,2 55,20 0,12 -7,20 -16,20 -12,0 -15,6 -10,23 3,12 6,25 6,30 0,4 29,7 64,7 58,0 64,-2 70,-22 9,-34 8,-38 -9,-38 -8,0 -15,-9 -15,-20 0,-19 5,-21 62,-18 40,2 63,8 66,16 2,7 -5,16 -15,18 -14,4 -26,26 -43,77 -61,193 -81,237 -105,237 -20,0 -29,-17 -80,-155 z"
       id="path5434"
       style="fill:#337ab7;fill-opacity:1"
       inkscape:connector-curvature="0" />
    <path
       d="m 5510,620 c 0,-11 7,-20 15,-20 13,0 15,-22 15,-135 0,-113 -2,-135 -15,-135 -8,0 -15,-9 -15,-20 0,-18 7,-20 60,-20 53,0 60,2 60,20 0,11 -7,20 -15,20 -11,0 -15,12 -15,51 0,49 1,50 28,47 23,-2 32,-14 59,-70 32,-67 33,-68 73,-68 33,0 40,3 40,20 0,11 -7,20 -15,20 -8,0 -22,15 -31,33 -9,17 -27,46 -40,64 -24,31 -24,32 -4,38 23,7 50,53 50,84 0,55 -79,91 -201,91 -42,0 -49,-3 -49,-20 z"
       id="path5436"
       style="fill:#337ab7;fill-opacity:1"
       inkscape:connector-curvature="0" />
    <path
       d="m 5860,621 c 0,-12 6,-21 15,-21 13,0 15,-22 15,-134 0,-127 -1,-135 -21,-141 -35,-11 -15,-30 37,-33 137,-9 214,27 214,102 0,33 -27,67 -62,78 -6,2 1,16 16,31 35,36 33,81 -6,110 -22,16 -48,22 -118,25 -86,4 -90,4 -90,-17 z"
       id="path5438"
       style="fill:#337ab7;fill-opacity:1"
       inkscape:connector-curvature="0" />
    <path
       d="m 6290,618 c -86,-44 -116,-154 -67,-248 30,-60 74,-82 151,-77 54,3 62,7 97,44 87,94 71,246 -31,287 -55,22 -98,20 -150,-6 z m 122,-28 c 37,-29 51,-71 46,-140 -5,-68 -29,-109 -72,-124 -68,-25 -121,39 -120,142 1,68 20,106 65,129 34,18 52,16 81,-7 z"
       id="path5440"
       style="fill:#337ab7;fill-opacity:1"
       inkscape:connector-curvature="0" />
    <path
       d="m 6608,634 c -15,-15 -8,-34 12,-34 19,0 20,-7 20,-134 0,-127 -1,-134 -21,-139 -43,-11 -14,-32 49,-35 57,-3 62,-1 62,18 0,13 -7,20 -20,20 -17,0 -20,7 -20,50 0,49 1,50 29,50 26,0 33,-7 63,-67 32,-67 34,-68 76,-71 37,-3 42,-1 42,17 0,14 -6,21 -20,21 -11,0 -20,4 -20,8 0,5 -15,33 -33,64 -33,53 -33,56 -15,67 27,17 47,69 39,100 -11,40 -56,60 -152,67 -46,3 -87,3 -91,-2 z"
       id="path5442"
       style="fill:#337ab7;fill-opacity:1"
       inkscape:connector-curvature="0" />
  </g>
</svg>
