<?xml version="1.0" encoding="UTF-8" standalone="no"?>
<svg
   xmlns:dc="http://purl.org/dc/elements/1.1/"
   xmlns:cc="http://creativecommons.org/ns#"
   xmlns:rdf="http://www.w3.org/1999/02/22-rdf-syntax-ns#"
   xmlns:svg="http://www.w3.org/2000/svg"
   xmlns="http://www.w3.org/2000/svg"
   xmlns:sodipodi="http://sodipodi.sourceforge.net/DTD/sodipodi-0.dtd"
   xmlns:inkscape="http://www.inkscape.org/namespaces/inkscape"
   viewBox="0 0 750.90997 431.27"
   id="svg2"
   version="1.1"
   inkscape:version="0.91 r13725"
   sodipodi:docname="weav.svg"
   width="750.90997"
   height="431.26999">
  <metadata
     id="metadata21">
    <rdf:RDF>
      <cc:Work
         rdf:about="">
        <dc:format>image/svg+xml</dc:format>
        <dc:type
           rdf:resource="http://purl.org/dc/dcmitype/StillImage" />
        <dc:title>Asset 25</dc:title>
      </cc:Work>
    </rdf:RDF>
  </metadata>
  <sodipodi:namedview
     pagecolor="#ffffff"
     bordercolor="#666666"
     borderopacity="1"
     objecttolerance="10"
     gridtolerance="10"
     guidetolerance="10"
     inkscape:pageopacity="0"
     inkscape:pageshadow="2"
     inkscape:window-width="1161"
     inkscape:window-height="725"
     id="namedview19"
     showgrid="false"
     inkscape:zoom="0.54722101"
     inkscape:cx="237.455"
     inkscape:cy="215.63499"
     inkscape:window-x="0"
     inkscape:window-y="0"
     inkscape:window-maximized="0"
     inkscape:current-layer="svg2" />
  <defs
     id="defs4">
    <style
       id="style6">.cls-1{fill:url(#New_Gradient_Swatch_1);}</style>
    <linearGradient
       id="New_Gradient_Swatch_1"
       y1="215.64"
       x2="474.91"
       y2="215.64"
       gradientUnits="userSpaceOnUse">
      <stop
         offset="0"
         stop-color="#f20951"
         id="stop9" />
      <stop
         offset="1"
         stop-color="#e90e8b"
         id="stop11" />
    </linearGradient>
  </defs>
  <title
     id="title13">Asset 25</title>
  <g
     id="Layer_2"
     data-name="Layer 2"
     transform="matrix(0.572872,0,0,0.572872,360.00187,94.647064)">
    <g
       id="Layer_1-2"
       data-name="Layer 1">
      <path
         class="cls-1"
         d="m 472,202.43 -28.55,-56.58 c -4,-7.86 -14,-14 -22.76,-14 l -11.86,0 -9.11,-17.9 7.08,-12.29 c 4.34,-7.53 4.64,-19.06 0.7,-26.81 L 376.23,13.36 C 372.19,5.42 362.05,-0.42 353.15,0 l -68.77,3.63 0,0 c -8.69,0.46 -18.51,6.49 -22.86,14 l -7.18,12.46 -19.46,1 -5.93,-10.28 C 224.55,13.19 214.23,7.58 205.44,8.09 l -62.94,3.55 c -8.56,0.48 -18.54,6.25 -23.23,13.42 l -34.8,53.29 c -4.81,7.36 -5.15,19.1 -0.78,26.72 l 5.82,10.15 -10.77,16.62 -14,0 c -8.7,0 -18.83,5.5 -23.56,12.8 L 3.64,202.5 c -4.85,7.48 -4.85,19.19 0,26.67 L 41.16,287 c 4.73,7.3 14.86,12.8 23.56,12.8 l 13.37,0 11,17 -5.64,9.78 c -4.39,7.62 -4.07,19.36 0.74,26.72 L 119,406.58 c 4.69,7.18 14.68,12.95 23.23,13.43 l 63,3.51 q 0.54,0 1.08,0 c 8.54,0 18.21,-5.44 22.42,-12.75 l 5.69,-9.88 20.58,1.11 6.7,11.62 c 4.35,7.54 14.17,13.56 22.86,14 l 68.77,3.61 1,0 c 8.65,0 18.19,-5.71 22.08,-13.36 l 31.28,-61.48 c 3.94,-7.75 3.64,-19.28 -0.7,-26.81 l -6.79,-11.78 9.14,-18 11.36,0 c 8.8,0 18.8,-6.15 22.76,-14 L 472,229.26 c 3.87,-7.65 3.87,-19.19 0,-26.83 z M 94.51,84.92 129.31,31.64 c 2.57,-3.93 9.17,-7.74 13.85,-8 l 62.94,-3.51 c 4.33,-0.22 10.27,3 12.44,6.73 L 237.37,59.53 200,124.44 c -2.23,3.87 -8.33,7.39 -12.79,7.39 l -74.36,0 L 94.1,99.11 C 91.93,95.33 92.13,88.56 94.51,84.92 Z M 218.35,404.8 c -2.17,3.77 -8.09,7 -12.44,6.74 l -63,-3.51 c -4.68,-0.26 -11.29,-4.08 -13.85,-8 L 94.28,346.8 c -2.38,-3.64 -2.57,-10.39 -0.39,-14.17 l 18.91,-32.8 74.8,0 c 4.47,0 10.56,3.52 12.8,7.39 l 37.1,64.36 z M 397,351 365.72,412.48 c -1.92,3.78 -7.52,7 -11.76,6.79 l -68.77,-3.61 c -4.57,-0.24 -10.81,-4.07 -13.09,-8 L 210.79,301.23 c -4.33,-7.51 -14.52,-13.4 -23.19,-13.4 l -122.88,0 c -4.57,0 -11,-3.5 -13.49,-7.33 L 13.7,222.64 c -2.31,-3.56 -2.31,-10 0,-13.61 l 37.52,-57.86 c 2.49,-3.84 8.92,-7.33 13.49,-7.33 l 122.45,0 c 8.67,0 18.86,-5.89 23.19,-13.4 L 271.91,23.65 c 2.28,-4 8.52,-7.79 13.09,-8 L 353.78,12 c 4.23,-0.24 9.84,3 11.76,6.79 l 31.28,61.48 c 2.08,4.08 1.88,11.41 -0.4,15.37 l -61.35,106.42 c -4.4,7.63 -4.4,19.15 0,26.79 l 61.55,106.77 c 2.29,3.96 2.48,11.29 0.38,15.38 z m 64.3,-127.15 -28.55,56.57 c -2,3.88 -7.7,7.42 -12.05,7.42 l -37.77,0 -37.46,-65 c -2.23,-3.87 -2.23,-10.93 0,-14.8 l 37,-64.22 38.23,0 c 4.35,0 10.09,3.54 12,7.42 l 28.55,56.58 c 2.17,4.18 2.17,11.84 0.05,16.03 z"
         id="path17"
         inkscape:connector-curvature="0"
         style="fill:url(#New_Gradient_Swatch_1)" />
    </g>
  </g>
</svg>
